<svg xmlns="http://www.w3.org/2000/svg" viewBox="0 0 128 128" xmlns:v="https://vecta.io/nano"><style><![CDATA[.F{stroke:#383f51}.G{stroke-linejoin:round}.H{stroke-width:2}.I{fill:#fbe9d0}.J{fill:#f1c550}.K{stroke-linecap:round}]]></style><path d="M66 102c0 11.6-1.12 21-2.5 21s-2.5-9.4-2.5-21zm-14 2c0 11.6-1.12 21-2.5 21s-2.5-9.4-2.5-21z" class="F G H I"/><path d="M79.82 74.41A27.44 27.44 0 0 0 71 78v.3a38.21 38.21 0 0 0 8 21.7 27.79 27.79 0 0 1-5 4c-1.81-1.58-5.85-6.81-7-11a49.33 49.33 0 0 0 2 13.7 26.14 26.14 0 0 1-8.32 2.19h-.34c-.94 0-1.89.08-2.84.08A64.4 64.4 0 0 1 33 104c6-6 9.58-14.65 10-24.88a30.41 30.41 0 0 0-3.81-.1c-2.7.1-5.69 1.16-8.19 2 3.67-10 13.53-18 24.09-18H60h.89A26.47 26.47 0 0 1 82 74a26.98 26.98 0 0 0-2.18.41z" fill="#a3a7e4" class="F G H"/><path d="M79,50c0,5.52-5.37,10-12,10S55,55.52,55,50V39l1.08-.22A9,9,0,0,1,74,40a8.87,8.87,0,0,1-.6,3.23A7.1,7.1,0,0,1,79,50Z" class="F G H J"/><ellipse cx="53" cy="47.5" rx="16" ry="17.5" class="F G H I"/><path d="M47 60.56a5.67 5.67 0 0 1-2.12 4.5c-.81.62-2.88 2-6.88 2a9.26 9.26 0 0 1-9-9.5A48.17 48.17 0 0 1 31.62 41l9 3.21a9.19 9.19 0 0 0-2 3.87 16.52 16.52 0 0 0-.62 4.48A5.81 5.81 0 0 0 39.14 56 4.7 4.7 0 0 1 42 55a5.13 5.13 0 0 1 4.86 4.2 6.16 6.16 0 0 1 .14 1.36z" class="F G H J"/><g class="I K F G H"><path d="M43 49l3 1a4.43 4.43 0 0 1 7-2m17-8l-1.64 2.46A4.43 4.43 0 0 0 62 46"/><path d="M45 46l2.12 2.12"/></g><g fill="#a3a7e4" class="F G H"><path d="M76.65 18.79c2.51 6.42-8.73 16.87-25.1 23.33s-31.69 6.5-34.2.08 8.73-16.87 25.1-23.33 31.69-6.5 34.2-.08z"/><path d="M57.76,23.4c-.43-1.11-1.83-1.74-3.82-1.89A8.56,8.56,0,0,1,46.87,16,2.22,2.22,0,0,0,49,14a1.84,1.84,0,0,0-.78-1.45C51.39,11.25,53.46,7.45,55,2c-2.75,3.79-6.33,6-11,6H40.14a4,4,0,0,0-3.77,2.66A65.16,65.16,0,0,0,33,32.27a2.14,2.14,0,0,0,.14.8c1,2.61,7.37,2.56,14.17-.11S58.79,26,57.76,23.4Z"/></g><path d="M77 86l13-27 3 2-13 27-3-2z" fill="#7d6a6c" class="F G H"/><path d="M62,54a3.19,3.19,0,0,1-3,2,3,3,0,0,1-2-1" class="F G H I K"/><path d="M112 34.5c0 15.74-7.84 28.5-17.5 28.5A10.5 10.5 0 0 1 84 52.5c0-6.46 2.45-9.78 5.44-12.06.58-.44 1.18-.84 1.79-1.22s1.13-.68 1.69-1l.13-.07 1.59-.93c.28-.16.55-.32.82-.5s.53-.34.78-.52a11.13 11.13 0 0 0 1.08-.84c.18-.16.36-.32.53-.49A7 7 0 0 0 100 30a3.46 3.46 0 0 0 0-.46A5.5 5.5 0 0 0 94.5 24a8.35 8.35 0 0 0-1.5 0 12.39 12.39 0 0 1 7-2 12.26 12.26 0 0 1 12 12.5z" class="F G H J"/></svg>