<svg xmlns="http://www.w3.org/2000/svg" viewBox="0 0 128 128" xmlns:v="https://vecta.io/nano"><style><![CDATA[.G{stroke:#383f51}.H{stroke-linejoin:round}.I{stroke-width:2}]]></style><path d="M111 88.5a20.68 20.68 0 0 0 3 10.5 24.07 24.07 0 0 0-7.5-1 23.48 23.48 0 0 0-22.27 16H84L69 82l57-14a21.5 21.5 0 0 0-15 20.5zm-47.57 24.59L61.5 113A21.32 21.32 0 0 0 43 124a21.8 21.8 0 0 0-21.5-19 22.88 22.88 0 0 0-8.5 2 22.73 22.73 0 0 0 4-12.5A21.49 21.49 0 0 0 2.12 74H2l57 14z" fill="#57617d" class="G H I"/><g fill="#8b91a8" class="G H I"><path d="M86 115H69a29.23 29.23 0 0 1-29-29.41L56 73c16.57 0 30 18.8 30 42zM47 9L35.91 50.93 30.57 69.4A24.51 24.51 0 0 1 17 47.47 39.72 39.72 0 0 1 47 9z"/><path d="M93 40.18C93 61 76.44 77.92 56 78L84 8a61.11 61.11 0 0 1 7.84 20.35L84 37h8.91q.09 1.57.09 3.18z"/><path d="M59.86 46.69c-15.18-5.51-29.76 2.88-32.57 18.72-1.73 9.79 4.46 20.49 13.85 23.9 15.18 5.51 29.76-2.88 32.57-18.72 1.73-9.8-4.47-20.5-13.85-23.9z"/></g><circle cx="60" cy="67" r="5" fill="#fff" class="G H I"/><path d="M55 67v.25a4.47 4.47 0 0 0 6.81-4.9A5 5 0 0 0 55 67z" fill="#aedefc" class="G H I"/><circle cx="38" cy="61" r="4" fill="#fff" class="G H I"/><path d="M34,61a4,4,0,0,0,.07.69,3.49,3.49,0,0,0,4.62-4.62A3.95,3.95,0,0,0,34,61Z" fill="#aedefc" class="G H I"/><path d="M49.72 69.1c-1.3-.18-3.52.34-4.07 1.9h-.13c-.08-1.66-2-2.76-3.19-2.93A4.08 4.08 0 0 0 38 72c0 3 2.25 4.48 6.47 7 5-1.23 8.11-2.73 8.48-5.39a3.82 3.82 0 0 0-3.23-4.51z" fill="#ff7d7d" class="G H I"/></svg>