<svg xmlns="http://www.w3.org/2000/svg" viewBox="0 0 128 128" stroke="#383f51" stroke-linejoin="round" stroke-width="2" xmlns:v="https://vecta.io/nano"><path d="M114 54.82C114 27.86 93 6 67 6 37.73 6 14 30.35 14 60.39a33.9 33.9 0 0 0 12 26V104c0 7 4.51 13 10 13h0c2.69 0 5.15-1.79 6.95-4 1.7 4.45 5.53 8 10 8H53c4.48 0 8.25-3.54 9.95-8 1.79 2.22 4.31 4 7 4h0c5.5 0 9.95-5.71 9.95-12.72 0-4.68-2.27-8.69-5.49-10.41C96.62 92.24 114 75.38 114 54.82z" fill="#fbe9d0"/><path d="M52.5 79c-.56 0-4.5 8.67-4.5 13a35.21 35.21 0 0 1 4.5-2 35.22 35.22 0 0 1 4.5 2c0-4.33-3.94-13-4.5-13zM92 57.22c0 9.14-7.12 16.54-15.9 16.54-7.79 0-14.1-6.65-14.1-14.85C62 52.33 68.72 47 77 47s15 4.58 15 10.22zm-40 0c0 9.14-7.12 16.54-15.9 16.54-7.79 0-14.1-6.65-14.1-14.85C22 52.33 28.72 47 37 47s15 4.58 15 10.22z" fill="#7d6a6c"/><path d="M10 61c0 11 9.86 20 22 20 9.42 0 17.46-4.63 20.6-11.14C56.16 76.37 65.3 81 76 81c13.8 0 25-9 25-20z" fill="#8b91a8"/></svg>