<svg xmlns="http://www.w3.org/2000/svg" viewBox="0 0 128 128" stroke="#383f51" stroke-linejoin="round" stroke-width="2" xmlns:v="https://vecta.io/nano"><path d="M107.56 52.86l-51.41 57.61a4.53 4.53 0 0 1-6.54.23L18.35 80.26a4.47 4.47 0 0 1 .06-6.46l56-52.4a5.3 5.3 0 0 1 7.25 0l25.61 24.06a5.3 5.3 0 0 1 .29 7.4z" fill="#ff7d7d"/><path d="M4 105c9-9 27.53-10.82 27.53-10.82M12 112c4.08-4.08 20.35-17 20.35-17M19 120c5.71-5.71 14.16-24.18 14.16-24.18M26 126c5.71-5.71 8.8-28.55 8.8-28.55M123 22c-9 9-27.84 11.82-27.84 11.82M115 16c-4.08 4.08-20.65 17-20.65 17M108 8c-5.71 5.71-14.47 24.18-14.47 24.18M101 2c-5.71 5.71-9.1 28.55-9.1 28.55" stroke-linecap="round" fill="none"/><g fill="#fbe9d0"><circle cx="59.5" cy="64.5" r="12.5"/><path d="M91 62a11 11 0 0 0-8.07 18.46l14.56-16.32A10.94 10.94 0 0 0 91 62zm15.73-17a12.5 12.5 0 1 1-17.41-16.36zM68.52 96.6l-12.37 13.87a4.53 4.53 0 0 1-6.54.23l-3.76-3.7a12.5 12.5 0 0 1 22.67-10.4zM37 64a11 11 0 0 1-17.56 8.83L35.24 58A10.86 10.86 0 0 1 37 64zm34-34a9 9 0 0 1-9 9 8.86 8.86 0 0 1-4.88-1.45l12.74-11.93A8.9 8.9 0 0 1 71 30z"/></g></svg>