<svg xmlns="http://www.w3.org/2000/svg" viewBox="0 0 128 128" stroke="#383f51" stroke-linejoin="round" stroke-width="2" xmlns:v="https://vecta.io/nano"><path d="M62 71c0-2.25 5-2.25 5 0 0 12-1 39.31-1 52.31 0 2.25-9 2.25-9 0 0-13 5-39.31 5-52.31z" fill="#7d6a6c"/><circle cx="64" cy="34" r="31" fill="#ff7d7d"/><g fill="#fbe9d0"><path d="M91.37 19.44A31.1 31.1 0 0 0 74.69 4.89l-.1.07a9 9 0 0 1-3.27 15.74A9.34 9.34 0 0 1 69 21a6 6 0 0 0-6 6 31.42 31.42 0 0 0 1 7h0v-.49C64 29.38 68.87 26 74.91 26H81a11.49 11.49 0 0 0 10.37-6.56z"/><path d="M64 34h0v.49C64 38.62 59.13 42 53.09 42H47a11.49 11.49 0 0 0-10.37 6.56 31.1 31.1 0 0 0 16.68 14.55l.1-.07a9 9 0 0 1 3.27-15.74A9.34 9.34 0 0 1 59 47a6 6 0 0 0 6-6 31.42 31.42 0 0 0-1-7z"/><path d="M64 34h-.49C59.38 34 56 29.13 56 23.09V17a11.49 11.49 0 0 0-6.56-10.37 31.1 31.1 0 0 0-14.55 16.68l.07.1a9 9 0 0 1 15.74 3.27A9.33 9.33 0 0 1 51 29a6 6 0 0 0 6 6 31.41 31.41 0 0 0 7-1 0 0 0 0 0 0 0z"/><path d="M93.11 44.69l-.07-.1a9 9 0 0 1-15.74-3.27A9.33 9.33 0 0 1 77 39a6 6 0 0 0-6-6 31.41 31.41 0 0 0-7 1 0 0 0 0 0 0 0h.49C68.62 34 72 38.87 72 44.91V51a11.49 11.49 0 0 0 6.56 10.37 31.1 31.1 0 0 0 14.55-16.68z"/></g><g fill="#aedefc"><path d="M94 85c0 3.87-3.58 7-8 7-9.94 0-18-9-18-20v-6.72A23.85 23.85 0 0 1 86.9 56a38.78 38.78 0 0 1 5.44.38 2 2 0 0 1 1.47 2.78A32.43 32.43 0 0 0 91 72.5C91 79 94 82 94 85zM61 67.23v3.46C61 81.91 54.32 91 43.62 91A8.78 8.78 0 0 1 35 82.06c0-5.28 3-6.38 3-13.47a14.17 14.17 0 0 0-1.5-6.31C35.11 59.47 37 56 39.92 56H40c9.53 0 15.95 4.44 21 11.23z"/><circle cx="64" cy="69" r="6"/></g></svg>