<svg xmlns="http://www.w3.org/2000/svg" viewBox="0 0 128 128" xmlns:v="https://vecta.io/nano"><style><![CDATA[.F{stroke:#383f51}.G{stroke-linejoin:round}.H{stroke-width:2}.I{stroke-linecap:round}]]></style><path d="M125 69l-19-32-19 14m32 39l-10-26-21 6M3 55l26-21 16 14M8 83l17-27 17 6m-18 39l8-24 15-4m54 31l-4-22-14-5" fill="none" class="F G H I"/><path d="M94 64l3 9-5-2v9l-2-2.7a19.73 19.73 0 0 1-5.59 5.2l-.79.47L84 85l-5-2 1 4-5-2v4l-2.77-2.21a29.62 29.62 0 0 1-14.95-2.07L55 87l-3-6-2 7s-2.81-2.81-3-10.22V77l-.22.55L45 82a26.13 26.13 0 0 1-2.92-10.68C42 70.58 42 69.8 42 69l-3 3 1-6-4 4 2-9c-3 0-6 3-6 3 0-5 3.51-8 7.59-8.75A11.46 11.46 0 0 1 42 55l-4-2 4-2-3-3h5l-2-4 3.79.63a19.22 19.22 0 0 1 2.83-2.13A29.59 29.59 0 0 1 65.84 38h0A20.57 20.57 0 0 1 74 36c5 0 6 1 6 1s-4.56.76-7.05 2.28A4.83 4.83 0 0 0 72 40l4.15.46L81 41l-1.63 1.09a31.54 31.54 0 0 1 10.12 9.35L96 56l-3 1 5 8z" fill="#8b91a8" class="F G H"/><circle cx="55.5" cy="62.5" r="9.5" fill="#fff" class="F G H"/><circle cx="60.5" cy="62.5" r="4.5" fill="#aedefc" class="F G H"/><circle cx="78.5" cy="62.5" r="9.5" fill="#fff" class="F G H"/><circle cx="83.5" cy="62.5" r="4.5" fill="#aedefc" class="F G H"/><path d="M70,78a4.07,4.07,0,0,0-2.62-1A3.24,3.24,0,0,0,65,78" fill="none" class="F G H I"/></svg>