<svg xmlns="http://www.w3.org/2000/svg" viewBox="0 0 128 128" stroke="#383f51" stroke-linejoin="round" stroke-width="2" xmlns:v="https://vecta.io/nano"><path d="M74,37a29.57,29.57,0,0,0-2-12A30,30,0,0,0,62,12l-3,4a15.77,15.77,0,0,1,2,8c0,7.67-6.11,12.32-7,13v3H74Z" fill="#a1c45a"/><path d="M64 39a26 26 0 0 1-10-2 22.6 22.6 0 0 0-15-5c-4.91 0-11.71 2.23-20 11-4.15 4.43-13.85 18.74-14 38-.09 11.73 4.22 21.66 10.94 26.34 11 7.64 27.67 1 31.06-.34a22.79 22.79 0 0 0 17 8h0a22.79 22.79 0 0 0 17-8c3.39 1.35 20.11 8 31.06.34 6.72-4.69 11-14.61 10.94-26.34-.15-19.26-9.85-33.57-14-38-8.29-8.8-15.08-11-20-11a22.6 22.6 0 0 0-15 5 26 26 0 0 1-10 2z" fill="#f1c550"/><g stroke-linecap="round" fill="none"><path d="M56 27a11.06 11.06 0 0 0-11.13-11m0 0A6.84 6.84 0 0 0 38 22.81m0 0A4.22 4.22 0 0 0 42.25 27m0 0c2.07 0 3.75-1.28 3.75-3.27M32 21a10.74 10.74 0 0 1 7.5-3"/><path d="M39.5 18c3.5 0 6.5 2.22 6.5 5.73M80 58a9 9 0 0 1 15 0l4-3"/><path d="M93.07 55.91L96 52m-48 7a9 9 0 0 0-15 0l-4-3"/><path d="M34.93 56.91L32 53"/></g><path d="M91,78c0,13.25-10.4,24-23.25,24C51.32,102,38,90.36,38,76a1.94,1.94,0,0,1,1.86-2c1.86,0,6.77,5,15.14,5,17,0,22-12,28.56-12C87.67,67,91,71.92,91,78Z" fill="#57617d"/><path d="M72,84l7-3-3.61-9.64a44.71,44.71,0,0,1-6.5,4.33Z" fill="#fff"/></svg>