<svg class="svg-icon" style="width: 1em; height: 1em;vertical-align: middle;fill: currentColor;overflow: hidden;" viewBox="0 0 1024 1024" version="1.1" xmlns="http://www.w3.org/2000/svg"><path d="M439.6 223c125.6-31.7 261.2 15.5 291.5 189.5 25.8 148.4 97.4 146.2 102.4 274.1 5 128-92 243.3-410.1 224.4C241.9 900.2 288.1 794 289 692.9c1-111.4 44.6-140 65.6-228.1 20.8-88-14.1-216.8 85-241.8z" fill="#4A994A" /><path d="M489.2 923c-21.3 0-43.5-0.7-66.5-2.1-61.1-3.6-102.1-18.4-125.2-45-29.9-34.6-25.9-82.1-21.7-132.4 1.4-16.7 2.9-33.9 3-50.6 0.6-70.9 17.9-108.9 36.1-149.2 10.8-23.8 21.9-48.4 29.7-81.2 5.9-24.9 7.2-54.2 8.5-82.5 1.6-35.2 3.2-71.5 13.6-101.2 12.3-35.2 35.3-56.5 70.2-65.3 74.8-18.9 146.3-9.6 201.1 26 26 16.9 47.8 39.4 64.8 67 18.1 29.4 30.9 64.5 37.8 104.5 12.2 70.3 34.4 104.9 55.9 138.4 22.6 35.3 44 68.7 46.7 137 1.1 28.7-2.7 55.6-11.4 80-9.5 26.6-24.7 50.3-45.4 70.5-32.1 31.4-77.3 54.6-134.3 68.9C606 917.2 551.3 923 489.2 923z m22.4-699.2c-22.4 0-45.8 3-69.6 9-28.3 7.1-46.2 23.8-56.2 52.6-9.4 27-11 61.8-12.5 95.5-1.3 29.3-2.7 59.5-9 86.3-8.2 34.7-19.8 60.2-31 84.8-17.4 38.3-33.8 74.4-34.3 141.1-0.2 17.5-1.6 35.1-3.1 52.2-3.9 46-7.5 89.5 16.9 117.7 19.4 22.4 55.8 34.9 111.2 38.2 88.1 5.3 163.3 0.3 223.5-14.8 53.6-13.4 95.7-34.8 125.2-63.7 35.9-35.2 53-80.7 50.8-135.5-2.5-62.9-21.5-92.6-43.6-127-21.5-33.5-45.8-71.5-58.7-145.8-6.5-37.5-18.3-70.2-35.1-97.4-15.5-25-35.2-45.5-58.7-60.7-33-21.6-72.7-32.5-115.8-32.5z m-72-0.8z" fill="#543630" /><path d="M412.3 230.3c100.4-19.8 195.6 18.1 212.9 193.8C640 574 694.7 574.5 691.4 702.5c-3.4 128.1-85 213.7-267.8 208.4-170.5-4.9-240-137.6-232.8-238.3 7.9-111.1 50.5-136.5 75.7-223 25.1-86.3 51.7-200.8 145.8-219.3z" fill="#FFEF78" /><path d="M439.5 921.1c-5.3 0-10.7-0.1-16.2-0.2-75.4-2.2-138.7-29.2-182.9-78.1-41.6-46-63.9-110-59.5-171 5-70.6 23.5-107.3 43.1-146.1 11.6-23 23.6-46.8 32.9-79 1.6-5.5 3.2-11.1 4.8-16.8 24.3-85 54.6-190.9 148.7-209.4l1.9 9.8-1.9-9.8c27.3-5.4 53-6.4 76.2-2.9 25.9 3.8 49 13.2 68.7 27.8 44.7 33.2 71.6 93 79.9 177.8 6.9 70.5 23.1 107.6 37.3 140.3 15.8 36.3 30.7 70.6 28.9 139.3-1.7 65.1-22.6 117-62 154.4-45 42.4-112.2 63.9-199.9 63.9z m19-685.6c-13.9 0-28.7 1.5-44.3 4.6-36.2 7.1-64.9 30.5-87.7 71.4-20.7 37-33.9 83.2-45.5 123.9-1.6 5.7-3.2 11.4-4.9 16.9-9.9 34-22.3 58.6-34.3 82.4-18.6 37-36.3 72-41 138.6-4 55.7 16.4 114 54.4 156.1 40.5 44.7 98.8 69.5 168.6 71.5 5.3 0.2 10.5 0.2 15.6 0.2 82.4 0 145-19.7 186.1-58.6 35.4-33.5 54.2-80.8 55.8-140.4 1.7-64.3-11.7-95.1-27.2-130.8-14.8-34.1-31.6-72.7-38.8-146.3-7.8-78.9-32-134-72-163.7-23.2-17.2-51.6-25.8-84.8-25.8z" fill="#543630" /><path d="M631.2 424.1c-17.3-175.7-118.5-213.7-218.9-193.8-94.1 18.6-120.7 133-145.8 219.3-25.1 86.5-67.7 111.9-75.7 223C183.6 773.4 253 906 423.5 910.9c182.8 5.3 264.4-80.3 267.8-208.4 3.4-128-45.3-128.5-60.1-278.4zM427.6 857.6c-118.3-3.1-182-79.2-181.3-189.4 0.6-89.3 48.7-124.9 67.6-195.8C332.8 401.8 352.4 305 419.4 284c71.4-22.4 161.5 18.2 168.8 167 6 123 51.5 148.8 49.4 228.8-3.3 119.3-73.9 181.4-210 177.8z" fill="#92DD98" /><path d="M517.5 619.1c-1.3 49-39.1 79.8-84.6 78.6s-81.7-34-80.4-83c1.3-49 66.7-142.9 86.3-142.3 19.7 0.5 80 97.6 78.7 146.7z" fill="#896750" /><path d="M435.5 707.7h-2.8c-25.1-0.7-48-10.1-64.5-26.5-17.2-17.1-26.2-40.8-25.6-66.8 0.3-12.8 4.4-28.5 12.1-46.6 6.5-15.4 15.4-32.1 25.8-48.3 9.7-15.1 20.2-28.9 29.6-38.9 15.6-16.7 24.1-18.4 29.1-18.3 5 0.1 13.4 2.3 28.1 19.8 8.8 10.4 18.6 24.8 27.5 40.4 9.5 16.7 17.5 33.8 23.2 49.6 6.7 18.5 9.9 34.4 9.6 47.2-0.7 26-11 49.2-29 65.4-16.8 14.9-39.1 23-63.1 23z m3.1-225.2c-5.5 2.1-22.6 18.1-43 50.5-19.9 31.6-32.5 63-33 82-0.5 20.7 6.3 38.7 19.7 52.1 12.9 12.8 31 20.1 51 20.7 20 0.5 38.5-5.8 52-17.9 14.1-12.6 21.8-30.2 22.4-51l10 0.3-10-0.3c0.5-19-10.5-51-28.7-83.6-18.8-33.5-35-50.4-40.4-52.8z m0.6-0.2z m-1.2 0z" fill="#543630" /><path d="M439.5 921.1c-5.3 0-10.7-0.1-16.2-0.2-75.4-2.2-138.7-29.2-182.9-78.1-41.6-46-63.9-110-59.5-171 5-70.6 23.5-107.3 43.1-146.1 11.6-23 23.6-46.8 32.9-79 1.6-5.5 3.2-11.1 4.8-16.8 24.3-85 54.6-190.9 148.7-209.4l1.9 9.8-1.9-9.8C470 208.7 522.5 218 562 247.4c45.7 34 73 93.1 81.2 175.8 6.9 69.7 20.8 106.7 33.2 139.3 14.4 38.1 26.8 71 25 140.3-1.7 65.1-22.6 117-62 154.4-45 42.4-112.2 63.9-199.9 63.9z m19.3-685.6c-13.5 0-28.3 1.4-44.5 4.6-36.2 7.1-64.9 30.5-87.7 71.4-20.7 37-33.9 83.2-45.5 123.9-1.6 5.7-3.2 11.4-4.9 16.9-9.9 34-22.3 58.6-34.3 82.4-18.6 37-36.3 72-41 138.6-4 55.7 16.4 114 54.4 156.1 40.5 44.7 98.8 69.5 168.6 71.5 5.3 0.2 10.5 0.2 15.6 0.2 82.4 0 145-19.7 186.1-58.6 35.4-33.5 54.2-80.8 55.8-140.4 1.7-65.4-10.1-96.6-23.7-132.7-12.8-33.8-27.2-72.1-34.4-144.5-7.6-76.8-32.2-131.2-73.2-161.7-18.6-13.5-48.1-27.7-91.3-27.7z" fill="#543630" /><path d="M460.2 232.1c-9.9 0-18.5-7.3-19.8-17.3-0.3-2-2.5-20.6 3.5-44.1 8.1-32 27.6-57.9 56.3-74.9 9.5-5.6 21.8-2.5 27.4 7 5.6 9.5 2.5 21.8-7 27.4-46.8 27.7-40.6 78.7-40.5 79.2 1.5 10.9-6.2 21-17.2 22.5-0.9 0.2-1.8 0.2-2.7 0.2z" fill="#543630" /></svg>